<svg width="26" height="22" viewBox="0 0 26 22" fill="none" xmlns="http://www.w3.org/2000/svg">
<path d="M16.5 10.1668H18.25V13.4568L21.0966 15.1018L20.2216 16.6185L16.5 14.4718V10.1668ZM20.1516 5.88516C19.1016 2.94516 16.3016 0.833496 13 0.833496C9.84996 0.833496 7.16663 2.7585 5.99996 5.50016C2.77996 5.50016 0.166626 8.1135 0.166626 11.3335C0.166626 14.5535 2.77996 17.1668 5.99996 17.1668H10.2933C11.6116 19.9202 14.4116 21.8335 17.6666 21.8335C22.1816 21.8335 25.8333 18.1818 25.8333 13.6668C25.8333 10.0268 23.4533 6.94683 20.1516 5.88516ZM5.99996 14.8335C4.06329 14.8335 2.49996 13.2702 2.49996 11.3335C2.49996 9.39683 4.06329 7.8335 5.99996 7.8335C6.43163 7.8335 6.85163 7.91516 7.23663 8.05516C7.4618 6.68936 8.16495 5.44801 9.22061 4.55263C10.2763 3.65724 11.6157 3.1661 13 3.16683C14.9016 3.16683 16.5816 4.0885 17.6666 5.50016C13.14 5.50016 9.49996 9.1635 9.49996 13.6668C9.49996 14.0635 9.53496 14.4485 9.59329 14.8335H5.99996ZM17.6666 19.5002C14.4466 19.5002 11.8333 16.8868 11.8333 13.6668C11.8333 10.4468 14.4466 7.8335 17.6666 7.8335C20.8866 7.8335 23.5 10.4468 23.5 13.6668C23.5 16.8868 20.8866 19.5002 17.6666 19.5002Z" fill="#A332C3"/>
</svg>
