<svg width="15" height="17" viewBox="0 0 15 17" fill="none" xmlns="http://www.w3.org/2000/svg">
<path d="M2.01654 2.08588H2.08612L2.1103 2.02063C2.29478 1.52283 2.63722 1.0909 3.09133 0.784961C3.5455 0.478987 4.08872 0.314355 4.64608 0.314355C5.20344 0.314355 5.74665 0.478987 6.20082 0.784961C6.65493 1.0909 6.99737 1.52283 7.18185 2.02063L7.20603 2.08588H7.27562H13.9377C14.1592 2.08588 14.3706 2.16969 14.5258 2.31742C14.6808 2.465 14.7669 2.66408 14.7669 2.87056C14.7669 3.07705 14.6808 3.27613 14.5258 3.4237C14.3706 3.57144 14.1592 3.65524 13.9377 3.65524H7.27562H7.20603L7.18185 3.72049C6.99737 4.21829 6.65493 4.65023 6.20082 4.95616C5.74665 5.26214 5.20344 5.42677 4.64608 5.42677C4.08872 5.42677 3.5455 5.26214 3.09133 4.95616C2.63722 4.65023 2.29478 4.21829 2.1103 3.72049L2.08612 3.65524H2.01654H0.929411C0.707962 3.65524 0.496511 3.57144 0.341347 3.4237C0.186349 3.27613 0.100244 3.07705 0.100244 2.87056C0.100244 2.66408 0.186349 2.465 0.341347 2.31742C0.496511 2.16969 0.707962 2.08588 0.929411 2.08588H2.01654ZM7.59154 7.39396H7.66112L7.6853 7.32871C7.86978 6.83091 8.21222 6.39898 8.66633 6.09304C9.1205 5.78706 9.66372 5.62243 10.2211 5.62243C10.7784 5.62243 11.3217 5.78706 11.7758 6.09304C12.2299 6.39898 12.5724 6.83091 12.7569 7.32871L12.781 7.39396H12.8506H13.9377C14.1592 7.39396 14.3706 7.47777 14.5258 7.6255C14.6808 7.77308 14.7669 7.97216 14.7669 8.17864C14.7669 8.38512 14.6808 8.5842 14.5258 8.73178C14.3706 8.87952 14.1592 8.96332 13.9377 8.96332H12.8506H12.781L12.7569 9.02857C12.5724 9.52637 12.2299 9.95831 11.7758 10.2642C11.3217 10.5702 10.7784 10.7348 10.2211 10.7348C9.66372 10.7348 9.1205 10.5702 8.66633 10.2642C8.21222 9.95831 7.86978 9.52637 7.6853 9.02857L7.66112 8.96332H7.59154H0.929411C0.707963 8.96332 0.496512 8.87952 0.341347 8.73178C0.186349 8.5842 0.100244 8.38512 0.100244 8.17864C0.100244 7.97216 0.186349 7.77308 0.341347 7.6255C0.496511 7.47777 0.707962 7.39396 0.929411 7.39396H7.59154ZM2.01654 12.702H2.08612L2.1103 12.6368C2.29478 12.139 2.63722 11.7071 3.09133 11.4011C3.5455 11.0951 4.08872 10.9305 4.64608 10.9305C5.20344 10.9305 5.74665 11.0951 6.20082 11.4011C6.65493 11.7071 6.99737 12.139 7.18185 12.6368L7.20603 12.702H7.27562H13.9377C14.1592 12.702 14.3706 12.7858 14.5258 12.9336C14.6808 13.0812 14.7669 13.2802 14.7669 13.4867C14.7669 13.6932 14.6808 13.8923 14.5258 14.0399C14.3706 14.1876 14.1592 14.2714 13.9377 14.2714H7.27562H7.20603L7.18185 14.3367C6.99737 14.8344 6.65493 15.2664 6.20082 15.5723C5.74665 15.8783 5.20344 16.0429 4.64608 16.0429C4.08872 16.0429 3.5455 15.8783 3.09133 15.5723C2.63722 15.2664 2.29478 14.8344 2.1103 14.3367L2.08612 14.2714H2.01654H0.929411C0.707962 14.2714 0.496511 14.1876 0.341347 14.0399C0.186349 13.8923 0.100244 13.6932 0.100244 13.4867C0.100244 13.2802 0.186349 13.0812 0.341346 12.9336C0.496511 12.7858 0.707962 12.702 0.929411 12.702H2.01654ZM4.64608 1.88588C4.37467 1.88588 4.11344 1.98849 3.9201 2.17258C3.72659 2.35682 3.61691 2.60778 3.61691 2.87056C3.61691 3.13334 3.72659 3.38431 3.9201 3.56855C4.11344 3.75263 4.37467 3.85524 4.64608 3.85524C4.91749 3.85524 5.17871 3.75263 5.37205 3.56855C5.56556 3.38431 5.67524 3.13334 5.67524 2.87056C5.67524 2.60778 5.56556 2.35682 5.37205 2.17258C5.17871 1.98849 4.91749 1.88588 4.64608 1.88588ZM10.2211 7.19396C9.94967 7.19396 9.68844 7.29657 9.4951 7.48065C9.30159 7.6649 9.19191 7.91586 9.19191 8.17864C9.19191 8.44142 9.30159 8.69238 9.4951 8.87663C9.68844 9.06071 9.94967 9.16332 10.2211 9.16332C10.4925 9.16332 10.7537 9.06071 10.9471 8.87663C11.1406 8.69238 11.2502 8.44142 11.2502 8.17864C11.2502 7.91586 11.1406 7.6649 10.9471 7.48065C10.7537 7.29657 10.4925 7.19396 10.2211 7.19396ZM4.64608 12.502C4.37467 12.502 4.11344 12.6046 3.9201 12.7887C3.72659 12.973 3.61691 13.2239 3.61691 13.4867C3.61691 13.7495 3.72659 14.0005 3.9201 14.1847C4.11344 14.3688 4.37467 14.4714 4.64608 14.4714C4.91749 14.4714 5.17871 14.3688 5.37205 14.1847C5.56556 14.0005 5.67524 13.7495 5.67524 13.4867C5.67524 13.2239 5.56556 12.973 5.37205 12.7887C5.17871 12.6046 4.91749 12.502 4.64608 12.502Z" fill="white" stroke="white" stroke-width="0.2"/>
</svg>
