<svg width="20" height="20" viewBox="0 0 20 20" fill="none" xmlns="http://www.w3.org/2000/svg">
<path d="M10.1002 20C8.70024 20 7.38791 19.7333 6.16324 19.2C4.93858 18.6667 3.87191 17.9457 2.96324 17.037C2.05458 16.129 1.33358 15.0623 0.800244 13.837C0.266911 12.6117 0.000244141 11.2993 0.000244141 9.9C0.000244141 7.46667 0.775244 5.32067 2.32524 3.462C3.87524 1.60333 5.85024 0.449333 8.25024 0C7.95024 1.65 8.04191 3.26267 8.52524 4.838C9.00858 6.41333 9.84191 7.79233 11.0252 8.975C12.2086 10.1583 13.5879 10.9917 15.1632 11.475C16.7386 11.9583 18.3509 12.05 20.0002 11.75C19.5669 14.15 18.4169 16.125 16.5502 17.675C14.6836 19.225 12.5336 20 10.1002 20ZM10.1002 18C11.5669 18 12.9252 17.6333 14.1752 16.9C15.4252 16.1667 16.4086 15.1583 17.1252 13.875C15.6919 13.7417 14.3336 13.379 13.0502 12.787C11.7669 12.195 10.6169 11.391 9.60024 10.375C8.58358 9.35833 7.77524 8.20833 7.17524 6.925C6.57524 5.64167 6.21691 4.28333 6.10024 2.85C4.81691 3.56667 3.81291 4.55433 3.08824 5.813C2.36358 7.07167 2.00091 8.434 2.00024 9.9C2.00024 12.15 2.78791 14.0627 4.36324 15.638C5.93858 17.2133 7.85091 18.0007 10.1002 18Z" fill="#A332C3"/>
</svg>
